<svg xmlns="http://www.w3.org/2000/svg" version="1.1" xmlns:xlink="http://www.w3.org/1999/xlink" xmlns:svgjs="http://svgjs.dev/svgjs" width="1500" height="1500" viewBox="0 0 1500 1500"><rect width="1500" height="1500" fill="#ffffff"></rect><g transform="matrix(0.6666666666666666,0,0,0.6666666666666666,249.39393939393938,653.9185758675035)"><svg viewBox="0 0 396 76" data-background-color="#ffffff" preserveAspectRatio="xMidYMid meet" height="287" width="1500" xmlns="http://www.w3.org/2000/svg" xmlns:xlink="http://www.w3.org/1999/xlink"><g id="tight-bounds" transform="matrix(1,0,0,1,0.2400000000000091,0.1647468679603037)"><svg viewBox="0 0 395.52 75.67050626407938" height="75.67050626407938" width="395.52"><g><svg viewBox="0 0 531.7628004589384 101.73634790436006" height="75.67050626407938" width="395.52"><g transform="matrix(1,0,0,1,136.2428004589384,14.060522756680733)"><svg viewBox="0 0 395.52 73.6153023909986" height="73.6153023909986" width="395.52"><g id="textblocktransform"><svg viewBox="0 0 395.52 73.6153023909986" height="73.6153023909986" width="395.52" id="textblock"><g><svg viewBox="0 0 395.52 73.6153023909986" height="73.6153023909986" width="395.52"><g transform="matrix(1,0,0,1,0,0)"><svg width="395.52" viewBox="1.78 -38.16 208.28 38.769999999999996" height="73.6153023909986" data-palette-color="#f3969a"><path d="M30.88-19.63L30.96-19.58Q30.49-18.75 30.49-15.6L30.49-15.6 30.49-8.03Q30.49-4.59 26.93-2.05L26.93-2.05Q23.24 0.61 17.9 0.61L17.9 0.61Q10.47 0.61 6.05-4.05L6.05-4.05Q1.78-8.5 1.78-15.38L1.78-15.38Q1.78-22.71 6.13-27.59L6.13-27.59Q10.99-33.08 19.51-33.08L19.51-33.08Q25.2-33.08 28.52-30.88L28.52-30.88 28.13-23.68 27.93-23.63Q27.08-25.12 24.56-26.07L24.56-26.07Q22.17-26.98 19.54-26.98 16.92-26.98 14.95-26.15 12.99-25.32 11.62-23.78L11.62-23.78Q8.74-20.63 8.74-15.45L8.74-15.45Q8.74-10.94 11.28-8.2L11.28-8.2Q13.82-5.49 17.82-5.49L17.82-5.49Q22.24-5.49 23.78-7.79L23.78-7.79Q24.27-8.52 24.27-9.45L24.27-9.45 24.27-13.5 21.12-13.5Q18.58-13.5 18.36-13.06L18.36-13.06 18.29-13.09 18.07-19.46Q18.75-19.26 23.61-19.26L23.61-19.26 26.49-19.26Q29.17-19.26 30.88-19.63L30.88-19.63ZM41.6-28.83L36.11-32.79Q38.06-35.84 40.18-38.16L40.18-38.16 45.43-34.03Q44.38-32.74 43.48-31.49L43.48-31.49Q43.48-31.49 41.6-28.83L41.6-28.83ZM42.53-25.51L42.53-2.73Q42.53-0.63 42.62 0L42.62 0 36.42 0 36.42-25.51 42.53-25.51ZM60.74-5.37L60.74-5.37Q63.89-5.37 65.06-7.01L65.06-7.01 65.25-7.01 65.33-1.34Q64.13-0.15 60.88 0.24L60.88 0.24Q60 0.37 58.7 0.37 57.39 0.37 55.87-0.12 54.34-0.61 53.27-1.71L53.27-1.71Q51.04-3.98 51.04-8.81L51.04-8.81 51.04-19.9 47.36-19.9Q47.33-20.61 47.33-21.34L47.33-21.34 47.33-25.1Q47.33-25.51 47.36-25.51L47.36-25.51 51.04-25.51 51.04-32.47 57.03-32.47 57.03-25.51 63.74-25.51 63.74-19.9 57.03-19.9 57.03-9.94Q57.03-6.1 59.15-5.57L59.15-5.57Q59.83-5.37 60.74-5.37ZM70.43 0L70.43-32.64Q73.82-33.08 77.39-33.08L77.39-33.08Q84.03-33.08 87.48-29.97 90.93-26.86 90.93-20.65L90.93-20.65Q90.93-15.11 87.15-11.89L87.15-11.89Q83.61-8.86 78.04-8.86L78.04-8.86Q77.41-8.86 76.65-8.94L76.65-8.94 76.65 0 70.43 0ZM78.12-27.2L78.12-27.2Q77.39-27.2 76.65-27.15L76.65-27.15 76.65-14.31Q77.43-14.21 78.56-14.21 79.68-14.21 80.9-14.69 82.12-15.16 82.95-16.02L82.95-16.02Q84.68-17.8 84.68-20.7L84.68-20.7Q84.68-27.2 78.12-27.2ZM93.47-12.62L93.47-12.62Q93.47-15.31 94.39-17.76 95.3-20.21 97.01-22.05L97.01-22.05Q100.75-26 106.7-26L106.7-26Q112.64-26 116.13-22.27L116.13-22.27Q119.47-18.7 119.47-13.01L119.47-13.01Q119.47-7.32 116.03-3.59L116.03-3.59Q112.39 0.37 106.39 0.37L106.39 0.37Q100.19 0.37 96.67-3.52L96.67-3.52Q93.47-7.06 93.47-12.62ZM99.4-12.77L99.4-12.77Q99.4-11.23 99.92-9.79 100.43-8.35 101.38-7.32L101.38-7.32Q103.41-5.1 106.7-5.1L106.7-5.1Q109.76-5.1 111.51-7.28L111.51-7.28Q113.22-9.38 113.22-12.74L113.22-12.74Q113.22-16.16 111.46-18.26L111.46-18.26Q109.58-20.51 106.31-20.51L106.31-20.51Q102.99-20.51 101.11-18.12L101.11-18.12Q99.4-15.92 99.4-12.77ZM133.14 0.37L133.14 0.37Q126.26 0.37 122.77-2.15L122.77-2.15Q122.81-2.88 122.91-3.81L122.91-3.81 123.13-5.57Q123.33-7.3 123.38-7.73 123.43-8.15 123.45-8.19 123.47-8.23 123.84-7.8 124.21-7.37 125.23-6.76 126.26-6.15 127.6-5.69L127.6-5.69Q130.51-4.69 133.65-4.69L133.65-4.69Q137.88-4.69 137.88-7.5L137.88-7.5Q137.88-8.4 137.07-8.84L137.07-8.84Q135.63-9.57 132.84-9.95 130.04-10.33 128.26-11.06 126.48-11.79 125.35-12.82L125.35-12.82Q123.28-14.75 123.28-17.87L123.28-17.87Q123.28-21.68 126.21-23.85L126.21-23.85Q129.11-26 134.24-26L134.24-26Q139.32-26 142.91-23.12L142.91-23.12Q142.74-22.49 142.54-21.9L142.54-21.9Q141.98-20.29 141.71-19.58L141.71-19.58 141.15-18.14Q141.1-17.94 141.08-17.94L141.08-17.94Q141.03-17.94 140.69-18.46L140.69-18.46Q139.15-20.24 135.9-20.8L135.9-20.8Q134.9-21 133.85-21L133.85-21Q129.41-21 129.41-18.31L129.41-18.31Q129.41-17.38 130.33-16.89L130.33-16.89Q132.07-15.97 135.08-15.53 138.1-15.09 139.66-14.34 141.22-13.6 142.18-12.55L142.18-12.55Q143.93-10.64 143.93-7.5L143.93-7.5Q143.93-4.05 141.17-1.9L141.17-1.9Q138.29 0.37 133.14 0.37ZM160.92-5.37L160.92-5.37Q164.07-5.37 165.24-7.01L165.24-7.01 165.44-7.01 165.51-1.34Q164.32-0.15 161.07 0.24L161.07 0.24Q160.19 0.37 158.88 0.37 157.58 0.37 156.05-0.12 154.53-0.61 153.45-1.71L153.45-1.71Q151.23-3.98 151.23-8.81L151.23-8.81 151.23-19.9 147.54-19.9Q147.52-20.61 147.52-21.34L147.52-21.34 147.52-25.1Q147.52-25.51 147.54-25.51L147.54-25.51 151.23-25.51 151.23-32.47 157.21-32.47 157.21-25.51 163.93-25.51 163.93-19.9 157.21-19.9 157.21-9.94Q157.21-6.1 159.34-5.57L159.34-5.57Q160.02-5.37 160.92-5.37ZM172.64-23.85L172.54-27.1Q172.37-32.71 172.15-34.91L172.15-34.91 178.28-34.91Q177.99-32.2 177.86-27.08L177.86-27.08 177.79-23.85 172.64-23.85ZM193.58-17.07L193.58-3.13Q193.58-0.98 193.78 0L193.78 0 187.65 0 187.65-25.51 193.58-25.51 193.58-23.34Q196.81-26 200.47-26L200.47-26Q204.47-26 206.86-23.28 209.26-20.56 209.26-16.11L209.26-16.11 209.26-6.4Q209.26-2.27 209.38-1.44 209.5-0.61 209.71-0.37 209.92-0.12 210.06 0.07L210.06 0.07 210.01 0.17Q208.04 0 207.13 0L207.13 0 205.42 0Q204.64 0 203.32 0.07L203.32 0.07 203.32-13.23Q203.32-20.39 198.98-20.39L198.98-20.39Q195.76-20.39 193.58-17.07L193.58-17.07Z" opacity="1" transform="matrix(1,0,0,1,0,0)" fill="#f3969a" class="wordmark-text-0" data-fill-palette-color="primary" id="text-0"></path></svg></g></svg></g></svg></g></svg></g><g><svg viewBox="0 0 118.86399433168101 101.73634790436006" height="101.73634790436006" width="118.86399433168101"><g><svg xmlns="http://www.w3.org/2000/svg" xmlns:xlink="http://www.w3.org/1999/xlink" version="1.1" x="0" y="0" viewBox="0.5 9.600000000000001 127.00000000000001 108.70000000000002" enable-background="new 0 0 128 128" xml:space="preserve" height="101.73634790436006" width="118.86399433168101" class="icon-icon-0" data-fill-palette-color="accent" id="icon-0"><g fill="#000000" data-fill-palette-color="accent"><path d="M27.1 40.8c1.5 0 2.7-1 3-2.4H45c-4.5 2.3-7.6 6.8-7.8 12h-1.5c-0.4 0-0.7 0.3-0.7 0.7v4.2c0 0.4 0.3 0.7 0.7 0.7h4.2c0.4 0 0.7-0.3 0.7-0.7v-4.2c0-0.4-0.3-0.7-0.7-0.7h-1.2c0.3-5.8 4.5-10.6 10.2-11.8v1.1c0 0.4 0.3 0.7 0.7 0.7h4.2c0.4 0 0.7-0.3 0.7-0.7v-1.1c5.6 1.1 9.8 6 10.2 11.8h-1.2c-0.4 0-0.7 0.3-0.7 0.7v4.2c0 0.4 0.3 0.7 0.7 0.7h4.2c0.4 0 0.7-0.3 0.7-0.7v-4.2c0-0.4-0.3-0.7-0.7-0.7h-1.5c-0.3-5.2-3.4-9.7-7.8-12h14.9c0.3 1.4 1.6 2.4 3 2.4 1.7 0 3.1-1.4 3.1-3.1 0-1.7-1.4-3.1-3.1-3.1-1.5 0-2.7 1-3 2.4H54.5v-1.3c0-0.4-0.3-0.7-0.7-0.7h-4.2c-0.4 0-0.7 0.3-0.7 0.7v1.3H30.1c-0.3-1.4-1.6-2.4-3-2.4-1.7 0-3.1 1.4-3.1 3.1C24 39.4 25.4 40.8 27.1 40.8zM39.1 54.5h-2.7v-2.7h2.7V54.5zM66.9 54.5h-2.7v-2.7h2.7V54.5zM76.3 36c0.9 0 1.7 0.7 1.7 1.7 0 0.9-0.7 1.7-1.7 1.7-0.9 0-1.7-0.7-1.7-1.7C74.6 36.8 75.3 36 76.3 36zM50.3 36.3H53v1.3c0 0 0 0 0 0 0 0 0 0.1 0 0.1V39h-2.7V36.3zM27.1 36c0.9 0 1.7 0.7 1.7 1.7 0 0.9-0.7 1.7-1.7 1.7-0.9 0-1.7-0.7-1.7-1.7C25.4 36.8 26.2 36 27.1 36z" fill="#000000" data-fill-palette-color="accent"></path><path d="M1.2 41.6c-0.4 0-0.7 0.3-0.7 0.7v9.6c0 0.4 0.3 0.7 0.7 0.7S2 52.4 2 51.9v-9.6C2 41.9 1.6 41.6 1.2 41.6z" fill="#000000" data-fill-palette-color="accent"></path><path d="M1.2 55.7c-0.4 0-0.7 0.3-0.7 0.7v3.4c0 0.4 0.3 0.7 0.7 0.7S2 60.3 2 59.9v-3.4C2 56.1 1.6 55.7 1.2 55.7z" fill="#000000" data-fill-palette-color="accent"></path><path d="M124.8 88c-0.4 0-0.7 0.3-0.7 0.7v9.6c0 0.4 0.3 0.7 0.7 0.7 0.4 0 0.7-0.3 0.7-0.7v-9.6C125.6 88.3 125.2 88 124.8 88z" fill="#000000" data-fill-palette-color="accent"></path><path d="M124.8 102.2c-0.4 0-0.7 0.3-0.7 0.7v3.4c0 0.4 0.3 0.7 0.7 0.7 0.4 0 0.7-0.3 0.7-0.7v-3.4C125.6 102.5 125.2 102.2 124.8 102.2z" fill="#000000" data-fill-palette-color="accent"></path><path d="M17.8 90.9c0-2-1.6-3.7-3.7-3.7-2 0-3.7 1.6-3.7 3.7 0 2 1.6 3.7 3.7 3.7C16.2 94.6 17.8 93 17.8 90.9zM14.1 93.1c-1.2 0-2.2-1-2.2-2.2 0-1.2 1-2.2 2.2-2.2 1.2 0 2.2 1 2.2 2.2C16.3 92.2 15.4 93.1 14.1 93.1z" fill="#000000" data-fill-palette-color="accent"></path><path d="M85 17c2 0 3.7-1.6 3.7-3.7 0-2-1.6-3.7-3.7-3.7-2 0-3.7 1.6-3.7 3.7C81.3 15.3 82.9 17 85 17zM85 11.1c1.2 0 2.2 1 2.2 2.2 0 1.2-1 2.2-2.2 2.2-1.2 0-2.2-1-2.2-2.2C82.7 12.1 83.7 11.1 85 11.1z" fill="#000000" data-fill-palette-color="accent"></path><path d="M35.7 116.9h-12c-0.4 0-0.7 0.3-0.7 0.7 0 0.4 0.3 0.7 0.7 0.7h12c0.4 0 0.7-0.3 0.7-0.7C36.4 117.2 36.1 116.9 35.7 116.9z" fill="#000000" data-fill-palette-color="accent"></path><path d="M19.8 116.9h-3.9c-0.4 0-0.7 0.3-0.7 0.7 0 0.4 0.3 0.7 0.7 0.7h3.9c0.4 0 0.7-0.3 0.7-0.7C20.5 117.2 20.2 116.9 19.8 116.9z" fill="#000000" data-fill-palette-color="accent"></path><path d="M15.2 113.5c0 0.4 0.3 0.7 0.7 0.7h8.4c0.4 0 0.7-0.3 0.7-0.7 0-0.4-0.3-0.7-0.7-0.7h-8.4C15.5 112.8 15.2 113.1 15.2 113.5z" fill="#000000" data-fill-palette-color="accent"></path><path d="M30.6 114.2c0.4 0 0.7-0.3 0.7-0.7 0-0.4-0.3-0.7-0.7-0.7h-2.7c-0.4 0-0.7 0.3-0.7 0.7 0 0.4 0.3 0.7 0.7 0.7H30.6z" fill="#000000" data-fill-palette-color="accent"></path><path d="M107 27h12c0.4 0 0.7-0.3 0.7-0.7 0-0.4-0.3-0.7-0.7-0.7h-12c-0.4 0-0.7 0.3-0.7 0.7C106.2 26.6 106.6 27 107 27z" fill="#000000" data-fill-palette-color="accent"></path><path d="M122.9 27h3.9c0.4 0 0.7-0.3 0.7-0.7 0-0.4-0.3-0.7-0.7-0.7h-3.9c-0.4 0-0.7 0.3-0.7 0.7C122.2 26.6 122.5 27 122.9 27z" fill="#000000" data-fill-palette-color="accent"></path><path d="M126.8 29.6h-8.4c-0.4 0-0.7 0.3-0.7 0.7 0 0.4 0.3 0.7 0.7 0.7h8.4c0.4 0 0.7-0.3 0.7-0.7C127.5 29.9 127.2 29.6 126.8 29.6z" fill="#000000" data-fill-palette-color="accent"></path><path d="M112.1 29.6c-0.4 0-0.7 0.3-0.7 0.7 0 0.4 0.3 0.7 0.7 0.7h2.7c0.4 0 0.7-0.3 0.7-0.7 0-0.4-0.3-0.7-0.7-0.7H112.1z" fill="#000000" data-fill-palette-color="accent"></path><path d="M24.8 12.4c0.1 0.1 0.3 0.2 0.5 0.2 0.2 0 0.4-0.1 0.5-0.2 0.3-0.3 0.3-0.8 0-1l-1.5-1.5c-0.3-0.3-0.8-0.3-1 0-0.3 0.3-0.3 0.8 0 1L24.8 12.4z" fill="#000000" data-fill-palette-color="accent"></path><path d="M29.8 17.4c0.1 0.1 0.3 0.2 0.5 0.2 0.2 0 0.4-0.1 0.5-0.2 0.3-0.3 0.3-0.8 0-1l-1.5-1.5c-0.3-0.3-0.8-0.3-1 0-0.3 0.3-0.3 0.8 0 1L29.8 17.4z" fill="#000000" data-fill-palette-color="accent"></path><path d="M23.8 17.7c0.2 0 0.4-0.1 0.5-0.2l1.5-1.5c0.3-0.3 0.3-0.8 0-1-0.3-0.3-0.8-0.3-1 0l-1.5 1.5c-0.3 0.3-0.3 0.8 0 1C23.4 17.6 23.6 17.7 23.8 17.7z" fill="#000000" data-fill-palette-color="accent"></path><path d="M28.8 12.7c0.2 0 0.4-0.1 0.5-0.2l1.5-1.5c0.3-0.3 0.3-0.8 0-1-0.3-0.3-0.8-0.3-1 0l-1.5 1.5c-0.3 0.3-0.3 0.8 0 1C28.4 12.6 28.6 12.7 28.8 12.7z" fill="#000000" data-fill-palette-color="accent"></path><path d="M76.8 109.7c-0.3-0.3-0.8-0.3-1 0-0.3 0.3-0.3 0.8 0 1l1.5 1.5c0.1 0.1 0.3 0.2 0.5 0.2 0.2 0 0.4-0.1 0.5-0.2 0.3-0.3 0.3-0.8 0-1L76.8 109.7z" fill="#000000" data-fill-palette-color="accent"></path><path d="M81.8 114.7c-0.3-0.3-0.8-0.3-1 0-0.3 0.3-0.3 0.8 0 1l1.5 1.5c0.1 0.1 0.3 0.2 0.5 0.2 0.2 0 0.4-0.1 0.5-0.2 0.3-0.3 0.3-0.8 0-1L81.8 114.7z" fill="#000000" data-fill-palette-color="accent"></path><path d="M77.3 114.7l-1.5 1.5c-0.3 0.3-0.3 0.8 0 1 0.1 0.1 0.3 0.2 0.5 0.2 0.2 0 0.4-0.1 0.5-0.2l1.5-1.5c0.3-0.3 0.3-0.8 0-1C78 114.4 77.6 114.4 77.3 114.7z" fill="#000000" data-fill-palette-color="accent"></path><path d="M82.3 109.7l-1.5 1.5c-0.3 0.3-0.3 0.8 0 1 0.1 0.1 0.3 0.2 0.5 0.2 0.2 0 0.4-0.1 0.5-0.2l1.5-1.5c0.3-0.3 0.3-0.8 0-1S82.6 109.4 82.3 109.7z" fill="#000000" data-fill-palette-color="accent"></path><path d="M89.2 26.7H14.1c-0.4 0-0.7 0.3-0.7 0.7v37.3c0 0.4 0.3 0.7 0.7 0.7h75.1c0.4 0 0.7-0.3 0.7-0.7V27.4C89.9 27 89.6 26.7 89.2 26.7zM88.5 64H14.9V28.2h73.6V64z" fill="#000000" data-fill-palette-color="accent"></path><path d="M105.4 94.9c0.4 0 0.7-0.3 0.7-0.7v-3.2c0-0.4-0.3-0.7-0.7-0.7-0.4 0-0.7 0.3-0.7 0.7v3.2C104.7 94.6 105 94.9 105.4 94.9z" fill="#000000" data-fill-palette-color="accent"></path><path d="M114.1 60.1h5.2c3.3 0 6-2.7 6-6 0-3.3-2.7-6-6-6H95.2v-24c0-1.5-1.2-2.7-2.7-2.7H10.8c-1.5 0-2.7 1.2-2.7 2.7V68c0 1.5 1.2 2.7 2.7 2.7h39.9l-17.9 31.1c-0.2 0.4-0.1 0.8 0.3 1 0.1 0.1 0.2 0.1 0.4 0.1 0.3 0 0.5-0.1 0.6-0.4l16.8-29.3V107c0 0.4 0.3 0.7 0.7 0.7 0.4 0 0.7-0.3 0.7-0.7V73.2l16.8 29.3c0.1 0.2 0.4 0.4 0.6 0.4 0.1 0 0.3 0 0.4-0.1 0.4-0.2 0.5-0.7 0.3-1L52.6 70.7h39.9c1.5 0 2.7-1.2 2.7-2.7V49.6h24.1c2.5 0 4.5 2 4.5 4.5 0 2.5-2 4.5-4.5 4.5h-5.2c-2.9 0-5.3 2.4-5.3 5.3v0.2c0 2.9 2.4 5.3 5.3 5.3h1c2.1 0 3.8 1.7 3.8 3.8s-1.7 3.8-3.8 3.8h-5.7c-2.6 0-4.7 2.1-4.7 4.7l0 3.6h-3.6c-3 0-5.5 2.5-5.5 5.5v17.9c0 3 2.5 5.5 5.5 5.5h8.6c3 0 5.5-2.5 5.5-5.5V90.9c0-3-2.5-5.5-5.5-5.5h-3.6l0-3.6c0-1.8 1.5-3.3 3.3-3.3h5.7c2.9 0 5.3-2.4 5.3-5.3 0-2.9-2.4-5.3-5.3-5.3h-1c-2.1 0-3.8-1.7-3.8-3.8v-0.2C110.3 61.8 112 60.1 114.1 60.1zM93.7 68c0 0.7-0.5 1.2-1.2 1.2H10.8c-0.7 0-1.2-0.5-1.2-1.2V24.1c0-0.7 0.5-1.2 1.2-1.2h81.7c0.7 0 1.2 0.5 1.2 1.2V68zM113.7 90.9v17.9c0 2.2-1.8 4-4 4h-8.6c-2.2 0-4-1.8-4-4V90.9c0-2.2 1.8-4 4-4h8.6C111.9 86.9 113.7 88.7 113.7 90.9z" fill="#000000" data-fill-palette-color="accent"></path></g></svg></g></svg></g></svg></g><defs></defs></svg><rect width="395.52" height="75.67050626407938" fill="none" stroke="none" visibility="hidden"></rect></g></svg></g></svg>